<svg width="466" height="485" viewBox="0 0 466 485" fill="none" xmlns="http://www.w3.org/2000/svg">
<g clip-path="url(#clip0_74_3)">
<mask id="mask0_74_3" style="mask-type:luminance" maskUnits="userSpaceOnUse" x="-19" y="0" width="1011" height="485">
<path d="M21.4167 0H-19V485H21.4167V0Z" fill="white"/>
<path d="M102.25 0H61.8333V485H102.25V0Z" fill="white"/>
<path d="M183.083 0H142.667V485H183.083V0Z" fill="white"/>
<path d="M263.917 0H223.5V485H263.917V0Z" fill="white"/>
<path d="M344.75 0H304.333V485H344.75V0Z" fill="white"/>
<path d="M425.583 0H385.167V485H425.583V0Z" fill="white"/>
</mask>
<g mask="url(#mask0_74_3)">
<path opacity="0.22" d="M223.5 461.963C344.706 461.963 442.963 363.706 442.963 242.5C442.963 121.294 344.706 23.0375 223.5 23.0375C102.294 23.0375 4.03749 121.294 4.03749 242.5C4.03749 363.706 102.294 461.963 223.5 461.963Z" stroke="white" stroke-opacity="0.5" stroke-width="11"/>
</g>
<mask id="mask1_74_3" style="mask-type:luminance" maskUnits="userSpaceOnUse" x="-19" y="0" width="1011" height="485">
<path d="M21.4167 0H-19V485H21.4167V0Z" fill="white"/>
<path d="M102.25 0H61.8333V485H102.25V0Z" fill="white"/>
<path d="M183.083 0H142.667V485H183.083V0Z" fill="white"/>
<path d="M263.917 0H223.5V485H263.917V0Z" fill="white"/>
<path d="M344.75 0H304.333V485H344.75V0Z" fill="white"/>
<path d="M425.583 0H385.167V485H425.583V0Z" fill="white"/>
</mask>
<g mask="url(#mask1_74_3)">
<path opacity="0.22" d="M223.5 423.466C323.445 423.466 404.466 342.444 404.466 242.5C404.466 142.555 323.445 61.5343 223.5 61.5343C123.555 61.5343 42.5344 142.555 42.5344 242.5C42.5344 342.444 123.555 423.466 223.5 423.466Z" stroke="white" stroke-opacity="0.5" stroke-width="11"/>
</g>
<mask id="mask2_74_3" style="mask-type:luminance" maskUnits="userSpaceOnUse" x="-19" y="0" width="1011" height="485">
<path d="M21.4167 0H-19V485H21.4167V0Z" fill="white"/>
<path d="M102.25 0H61.8333V485H102.25V0Z" fill="white"/>
<path d="M183.083 0H142.667V485H183.083V0Z" fill="white"/>
<path d="M263.917 0H223.5V485H263.917V0Z" fill="white"/>
<path d="M344.75 0H304.333V485H344.75V0Z" fill="white"/>
<path d="M425.583 0H385.167V485H425.583V0Z" fill="white"/>
</mask>
<g mask="url(#mask2_74_3)">
<path opacity="0.22" d="M223.5 384.969C302.183 384.969 365.969 321.183 365.969 242.5C365.969 163.817 302.183 100.031 223.5 100.031C144.817 100.031 81.0312 163.817 81.0312 242.5C81.0312 321.183 144.817 384.969 223.5 384.969Z" stroke="white" stroke-opacity="0.5" stroke-width="11"/>
</g>
<mask id="mask3_74_3" style="mask-type:luminance" maskUnits="userSpaceOnUse" x="-19" y="0" width="1011" height="485">
<path d="M21.4167 0H-19V485H21.4167V0Z" fill="white"/>
<path d="M102.25 0H61.8333V485H102.25V0Z" fill="white"/>
<path d="M183.083 0H142.667V485H183.083V0Z" fill="white"/>
<path d="M263.917 0H223.5V485H263.917V0Z" fill="white"/>
<path d="M344.75 0H304.333V485H344.75V0Z" fill="white"/>
<path d="M425.583 0H385.167V485H425.583V0Z" fill="white"/>
</mask>
<g mask="url(#mask3_74_3)">
<path opacity="0.22" d="M223.5 346.472C280.922 346.472 327.472 299.922 327.472 242.5C327.472 185.078 280.922 138.528 223.5 138.528C166.078 138.528 119.528 185.078 119.528 242.5C119.528 299.922 166.078 346.472 223.5 346.472Z" stroke="white" stroke-opacity="0.5" stroke-width="11"/>
</g>
<mask id="mask4_74_3" style="mask-type:luminance" maskUnits="userSpaceOnUse" x="-19" y="0" width="1011" height="485">
<path d="M21.4167 0H-19V485H21.4167V0Z" fill="white"/>
<path d="M102.25 0H61.8333V485H102.25V0Z" fill="white"/>
<path d="M183.083 0H142.667V485H183.083V0Z" fill="white"/>
<path d="M263.917 0H223.5V485H263.917V0Z" fill="white"/>
<path d="M344.75 0H304.333V485H344.75V0Z" fill="white"/>
<path d="M425.583 0H385.167V485H425.583V0Z" fill="white"/>
</mask>
<g mask="url(#mask4_74_3)">
<path opacity="0.22" d="M223.5 307.975C259.661 307.975 288.975 278.661 288.975 242.5C288.975 206.339 259.661 177.025 223.5 177.025C187.339 177.025 158.025 206.339 158.025 242.5C158.025 278.661 187.339 307.975 223.5 307.975Z" stroke="white" stroke-opacity="0.5" stroke-width="11"/>
</g>
<mask id="mask5_74_3" style="mask-type:luminance" maskUnits="userSpaceOnUse" x="-19" y="0" width="1011" height="485">
<path d="M21.4167 0H-19V485H21.4167V0Z" fill="white"/>
<path d="M102.25 0H61.8333V485H102.25V0Z" fill="white"/>
<path d="M183.083 0H142.667V485H183.083V0Z" fill="white"/>
<path d="M263.917 0H223.5V485H263.917V0Z" fill="white"/>
<path d="M344.75 0H304.333V485H344.75V0Z" fill="white"/>
<path d="M425.583 0H385.167V485H425.583V0Z" fill="white"/>
</mask>
<g mask="url(#mask5_74_3)">
<path opacity="0.22" d="M223.5 269.478C238.4 269.478 250.478 257.4 250.478 242.5C250.478 227.6 238.4 215.522 223.5 215.522C208.6 215.522 196.522 227.6 196.522 242.5C196.522 257.4 208.6 269.478 223.5 269.478Z" stroke="white" stroke-opacity="0.5" stroke-width="11"/>
</g>
<mask id="mask6_74_3" style="mask-type:luminance" maskUnits="userSpaceOnUse" x="21" y="0" width="930" height="485">
<path d="M61.8333 0H21.4167V485H61.8333V0Z" fill="white"/>
<path d="M142.667 0H102.25V485H142.667V0Z" fill="white"/>
<path d="M223.5 0H183.083V485H223.5V0Z" fill="white"/>
<path d="M304.333 0H263.917V485H304.333V0Z" fill="white"/>
<path d="M385.167 0H344.75V485H385.167V0Z" fill="white"/>
<path d="M466 0H425.583V485H466V0Z" fill="white"/>
</mask>
<g mask="url(#mask6_74_3)">
<path d="M223.5 481.666C355.588 481.666 462.666 374.588 462.666 242.5C462.666 110.412 355.588 3.33435 223.5 3.33435C91.4125 3.33435 -15.6656 110.412 -15.6656 242.5C-15.6656 374.588 91.4125 481.666 223.5 481.666Z" stroke="white" stroke-opacity="0.5" stroke-width="11"/>
</g>
<mask id="mask7_74_3" style="mask-type:luminance" maskUnits="userSpaceOnUse" x="21" y="0" width="930" height="485">
<path d="M61.8333 0H21.4167V485H61.8333V0Z" fill="white"/>
<path d="M142.667 0H102.25V485H142.667V0Z" fill="white"/>
<path d="M223.5 0H183.083V485H223.5V0Z" fill="white"/>
<path d="M304.333 0H263.917V485H304.333V0Z" fill="white"/>
<path d="M385.167 0H344.75V485H385.167V0Z" fill="white"/>
<path d="M466 0H425.583V485H466V0Z" fill="white"/>
</mask>
<g mask="url(#mask7_74_3)">
<path d="M223.5 443.169C334.326 443.169 424.169 353.326 424.169 242.5C424.169 131.674 334.326 41.8313 223.5 41.8313C112.674 41.8313 22.8312 131.674 22.8312 242.5C22.8312 353.326 112.674 443.169 223.5 443.169Z" stroke="white" stroke-opacity="0.5" stroke-width="11"/>
</g>
<mask id="mask8_74_3" style="mask-type:luminance" maskUnits="userSpaceOnUse" x="21" y="0" width="930" height="485">
<path d="M61.8333 0H21.4167V485H61.8333V0Z" fill="white"/>
<path d="M142.667 0H102.25V485H142.667V0Z" fill="white"/>
<path d="M223.5 0H183.083V485H223.5V0Z" fill="white"/>
<path d="M304.333 0H263.917V485H304.333V0Z" fill="white"/>
<path d="M385.167 0H344.75V485H385.167V0Z" fill="white"/>
<path d="M466 0H425.583V485H466V0Z" fill="white"/>
</mask>
<g mask="url(#mask8_74_3)">
<path d="M223.5 404.672C313.065 404.672 385.672 332.065 385.672 242.5C385.672 152.935 313.065 80.3281 223.5 80.3281C133.935 80.3281 61.3281 152.935 61.3281 242.5C61.3281 332.065 133.935 404.672 223.5 404.672Z" stroke="white" stroke-opacity="0.5" stroke-width="11"/>
</g>
<mask id="mask9_74_3" style="mask-type:luminance" maskUnits="userSpaceOnUse" x="21" y="0" width="930" height="485">
<path d="M61.8333 0H21.4167V485H61.8333V0Z" fill="white"/>
<path d="M142.667 0H102.25V485H142.667V0Z" fill="white"/>
<path d="M223.5 0H183.083V485H223.5V0Z" fill="white"/>
<path d="M304.333 0H263.917V485H304.333V0Z" fill="white"/>
<path d="M385.167 0H344.75V485H385.167V0Z" fill="white"/>
<path d="M466 0H425.583V485H466V0Z" fill="white"/>
</mask>
<g mask="url(#mask9_74_3)">
<path d="M223.5 366.175C291.804 366.175 347.175 310.804 347.175 242.5C347.175 174.196 291.804 118.825 223.5 118.825C155.196 118.825 99.825 174.196 99.825 242.5C99.825 310.804 155.196 366.175 223.5 366.175Z" stroke="white" stroke-opacity="0.5" stroke-width="11"/>
</g>
<mask id="mask10_74_3" style="mask-type:luminance" maskUnits="userSpaceOnUse" x="21" y="0" width="930" height="485">
<path d="M61.8333 0H21.4167V485H61.8333V0Z" fill="white"/>
<path d="M142.667 0H102.25V485H142.667V0Z" fill="white"/>
<path d="M223.5 0H183.083V485H223.5V0Z" fill="white"/>
<path d="M304.333 0H263.917V485H304.333V0Z" fill="white"/>
<path d="M385.167 0H344.75V485H385.167V0Z" fill="white"/>
<path d="M466 0H425.583V485H466V0Z" fill="white"/>
</mask>
<g mask="url(#mask10_74_3)">
<path d="M223.5 327.678C270.543 327.678 308.678 289.543 308.678 242.5C308.678 195.457 270.543 157.322 223.5 157.322C176.457 157.322 138.322 195.457 138.322 242.5C138.322 289.543 176.457 327.678 223.5 327.678Z" stroke="white" stroke-opacity="0.5" stroke-width="11"/>
</g>
<mask id="mask11_74_3" style="mask-type:luminance" maskUnits="userSpaceOnUse" x="21" y="0" width="930" height="485">
<path d="M61.8333 0H21.4167V485H61.8333V0Z" fill="white"/>
<path d="M142.667 0H102.25V485H142.667V0Z" fill="white"/>
<path d="M223.5 0H183.083V485H223.5V0Z" fill="white"/>
<path d="M304.333 0H263.917V485H304.333V0Z" fill="white"/>
<path d="M385.167 0H344.75V485H385.167V0Z" fill="white"/>
<path d="M466 0H425.583V485H466V0Z" fill="white"/>
</mask>
<g mask="url(#mask11_74_3)">
<path d="M223.5 289.181C249.281 289.181 270.181 268.281 270.181 242.5C270.181 216.719 249.281 195.819 223.5 195.819C197.719 195.819 176.819 216.719 176.819 242.5C176.819 268.281 197.719 289.181 223.5 289.181Z" stroke="white" stroke-opacity="0.5" stroke-width="11"/>
</g>
</g>
<defs>
<clipPath id="clip0_74_3">
<rect width="466" height="485" fill="white"/>
</clipPath>
</defs>
</svg>
